# xmcd CD database file
#
# Track frame offsets:
#	150
#	13215
#	27542
#	41232
#	52982
#	67692
#	78087
#	90910
#	103835
#	118262
#	130912
#	145435
#	158627
#	169762
#	179755
#	192177
#	204997
#	215667
#	230272
#	262972
#
# Disc length: 3666 seconds
#
# Revision: 1
# Processed by: cddbd v1.5.1PL2 Copyright (c) Steve Scherf et al.
# Submitted via: CDex 1.51
#
DISCID=170e5014
DTITLE=Chess Blues - The Best Of Chess Blues
DYEAR=1900
DGENRE=Blues
TTITLE0=Hoochie Coochie Man - Muddy Waters
TTITLE1=Smokestack lightnin' - Howlin' Wolf
TTITLE2=Can't hold out much longer - Little Walter
TTITLE3=bing it on home - Sonny Boy Williamson
TTITLE4=anna lee - Robert Nighthawk
TTITLE5=talk to me baby - Elmore James
TTITLE6=rocket 88 - Jackie Brenston
TTITLE7=when the lights go out - Jimmy Witherspoon
TTITLE8=i don't know why - Willie Mabon
TTITLE9=the walk - Jimmy McCracklin
TTITLE10=reconsider baby - Lowell Fulson
TTITLE11=it's my soul - Clifton Chenier
TTITLE12=jock-a-mo - James "Sugar Boy" Crawford
TTITLE13=flat foot sam - Oscar Wills (T.V.Slim)
TTITLE14=mad man blues - John Lee Hooker
TTITLE15=that's all right - Jimmy Rogers
TTITLE16=mama talk to your daughter - J.B.Lenoir
TTITLE17=so many roads - Otis Rush
TTITLE18=stone crazy - Buddy Guy
TTITLE19=grits ain't groceries - Little Milton
EXTD=
EXTT0=
EXTT1=
EXTT2=
EXTT3=
EXTT4=
EXTT5=
EXTT6=
EXTT7=
EXTT8=
EXTT9=
EXTT10=
EXTT11=
EXTT12=
EXTT13=
EXTT14=
EXTT15=
EXTT16=
EXTT17=
EXTT18=
EXTT19=
PLAYORDER=
